<svg width="264" height="666" viewBox="0 0 264 666" fill="none" xmlns="http://www.w3.org/2000/svg">
<path d="M98.9998 57.0001C98.9998 42.717 95.8937 33.0797 91.827 26.5558C87.7801 20.064 82.3889 16.0194 76.7254 13.5294C70.9634 10.9961 64.9189 10.0846 59.9842 10.046C57.5311 10.0269 55.5062 10.2256 54.0926 10.4767C53.4796 10.5856 53.0941 10.685 52.8904 10.7423C50.9166 11.9878 49.222 12.816 46.4744 15.7531C43.4241 19.0137 39.1278 25.0245 34.6766 36.297C25.6944 59.044 16.4902 102.158 14.9988 184.182C13.4963 266.823 11.2494 351.142 10.4998 419.609C10.1252 453.821 10.1272 483.92 10.7781 507.727C11.4392 531.903 12.7587 548.586 14.7166 556.636C19.461 576.141 24.0599 602.756 38.6199 623.965C45.6981 634.276 55.0057 643.029 67.7322 648.734C80.4915 654.455 97.3501 657.41 119.965 655.054C190.606 647.695 229.393 621.376 241.339 608.838C244.143 578.188 247.959 532.48 250.646 490.954C252.039 469.439 253.124 449.119 253.614 432.628C253.852 424.605 253.938 417.702 253.875 412.097C244.173 419.683 227.685 430.061 209.15 436.984C190.598 443.913 169.122 447.705 150.257 440.686C138.983 436.491 130.836 431.141 125.535 424.845C120.16 418.461 117.902 411.32 118.128 404.094C118.568 390.002 128.34 376.534 139.834 367.13L146.167 374.869C135.661 383.465 128.433 394.497 128.123 404.405C127.974 409.179 129.403 413.913 133.184 418.404C137.039 422.983 143.518 427.508 153.744 431.314C169.279 437.094 187.97 434.219 205.651 427.615C223.212 421.056 238.917 411.135 247.911 404.068L253.871 411.652C253.795 405.707 253.545 401.263 253.12 398.543C251.094 385.578 248.779 363.139 247.089 339.924C243.98 345.518 240.241 351.107 235.784 356.268C231.257 361.51 224.812 365.299 217.784 368.075C210.713 370.869 202.712 372.769 194.708 374.038C178.71 376.574 162.129 376.675 151.673 375.989L150.05 375.882L148.8 374.841C142.614 369.687 138.433 365.099 136.145 360.564C133.711 355.737 133.558 351.242 134.821 346.863C135.973 342.87 138.334 338.962 140.527 335.263C142.827 331.383 145.277 327.229 147.373 322.107C149.785 316.21 154.823 311.952 160.506 308.856C166.238 305.733 173.157 303.499 180.221 301.899C192.314 299.158 205.491 298.13 215.376 297.997C215.916 289.697 216.304 276.006 215.031 264.552C214.966 263.966 214.536 262.834 212.778 261.193C211.053 259.584 208.464 257.878 205.057 256.142C198.259 252.677 189.098 249.531 179.51 246.81C169.974 244.103 160.251 241.878 152.435 240.2C144.885 238.579 138.587 237.368 136.627 236.808C134.075 236.079 131.816 234.348 130.049 232.708C128.179 230.973 126.356 228.854 124.696 226.709C122.909 224.4 121.221 221.938 119.767 219.663C116.768 220.381 113.972 221.065 111.426 221.701L98.9998 224.808V57.0001ZM164.584 455.28C135.717 472.7 123.678 485.266 119.216 495.606C114.898 505.61 117.243 514.401 120.801 526.6C120.948 527.104 121.275 527.709 122.799 528.258C124.505 528.873 127.217 529.188 131.074 528.952C138.731 528.485 149.168 525.982 160.943 522.191C184.376 514.645 211.731 502.462 229.781 493.52L234.22 502.48C215.936 511.537 188.092 523.954 164.008 531.709C156.374 534.167 148.976 536.202 142.301 537.498L145.113 543.531C120.7 554.916 110.811 570.007 108.545 582.44C106.212 595.236 111.708 605.263 118.236 608.527C119.011 608.915 120.694 609.321 123.665 609.34C126.519 609.358 130.087 609.022 134.266 608.351C142.617 607.009 152.9 604.414 163.849 601.157C185.72 594.651 209.709 585.664 225.109 579.371L228.891 588.628C213.292 595.002 188.98 604.115 166.701 610.742C155.575 614.052 144.821 616.782 135.853 618.224C131.373 618.944 127.211 619.363 123.6 619.34C120.107 619.317 116.59 618.884 113.764 617.472C102.293 611.736 95.7883 596.654 98.7059 580.647C101.35 566.139 111.555 550.816 132.346 538.888C132.124 538.904 131.902 538.92 131.682 538.934C127.241 539.205 122.963 538.948 119.406 537.665C115.665 536.316 112.453 533.696 111.2 529.4C107.758 517.598 104.103 505.389 110.035 491.644C115.823 478.233 130.284 464.299 159.417 446.719L164.584 455.28ZM225.479 202.883C221.675 202.298 214.749 202.457 205.165 203.484C195.858 204.48 184.896 206.191 173.488 208.264C158.65 210.96 143.271 214.231 130.156 217.232C130.94 218.365 131.763 219.501 132.605 220.59C134.079 222.495 135.529 224.152 136.851 225.379C138.276 226.701 139.126 227.121 139.374 227.192C140.914 227.632 146.366 228.67 154.534 230.424C162.437 232.121 172.402 234.397 182.241 237.19C192.028 239.968 201.929 243.323 209.599 247.233C213.427 249.183 216.924 251.385 219.601 253.884C222.246 256.352 224.535 259.534 224.97 263.447C226.623 278.331 225.659 296.314 224.977 303.474L224.539 308.077L219.916 307.999C210.358 307.837 195.577 308.671 182.43 311.651C175.852 313.141 169.909 315.12 165.289 317.637C160.62 320.18 157.816 322.989 156.628 325.893C154.223 331.77 151.424 336.492 149.13 340.361C146.729 344.412 145.152 347.129 144.429 349.636C143.818 351.757 143.852 353.637 145.074 356.061C146.342 358.575 148.962 361.793 153.961 366.105C163.893 366.638 178.831 366.43 193.142 364.161C200.697 362.964 207.934 361.214 214.11 358.775C220.33 356.317 225.144 353.289 228.217 349.732C236.643 339.974 242.268 328.362 245.739 318.665C245.459 313.428 245.226 308.289 245.052 303.354C244.67 292.575 244.56 282.584 244.86 274.546C245.01 270.535 245.267 266.858 245.676 263.737C246.049 260.883 246.657 257.547 247.921 254.809C248.309 253.968 248.999 250.61 248.53 244.534C248.097 238.92 246.777 232.296 244.555 225.91C242.319 219.48 239.332 213.758 235.842 209.602C232.374 205.472 228.88 203.406 225.479 202.883ZM130.9 328.073C82.0538 362.845 47.8446 348.304 36.1502 334.19L43.8504 327.81C51.4894 337.029 79.5469 352.354 125.1 319.926L130.9 328.073ZM128.001 246C133.548 246 137.865 248.302 140.768 252.138C143.482 255.722 144.711 260.297 145.218 264.675C146.234 273.458 144.582 283.637 142.836 290.273L133.165 287.727C134.752 281.695 136.099 272.875 135.283 265.824C134.873 262.286 133.977 259.735 132.795 258.174C131.803 256.864 130.453 256 128.001 256C113.783 256 104.5 263.75 101.964 267.048L94.0369 260.951C98.1671 255.582 110.219 246 128.001 246ZM42.6688 250.004C45.8956 247.587 49.8914 245.694 54.3563 246.013C61.5656 246.528 67.9198 250.614 72.6453 254.811C77.4534 259.08 81.21 264.028 83.2664 267.393L74.7342 272.607C73.1239 269.972 69.9808 265.818 66.0057 262.288C61.9479 258.685 57.6349 256.272 53.6443 255.986C52.5093 255.905 50.8714 256.354 48.6629 258.008C46.484 259.64 44.1986 262.119 41.949 265.168C37.4573 271.256 33.6933 278.81 31.6326 283.882L22.368 280.117C24.6407 274.523 28.7773 266.176 33.9021 259.231C36.4607 255.763 39.4125 252.443 42.6688 250.004ZM109 212C139.666 204.333 206.201 189.8 227.001 193C253 197.001 263.001 246 257.001 259L256.891 259.249C254.626 264.671 254.302 281.997 255.045 303C256.206 335.816 259.971 377.608 263.001 397C267.001 422.601 256.667 551.667 251.001 613L250.447 613.667C238.351 627.931 196.601 657.125 121.001 665L118.765 665.218C26.3074 673.633 14.2935 598.147 5.42363 560.764L4.9998 559C-3.71895 523.156 1.63988 359.679 4.71074 199.487L4.9998 184C7.99973 19.0045 41.9985 6.00049 47.9998 2.00012C53.9998 -1.99988 109 -5.99988 109 57.0001V212Z" fill="black"/>
</svg>
